<?xml version="1.0" encoding="iso-8859-1"?>
<!-- Generator: Adobe Illustrator 18.0.0, SVG Export Plug-In . SVG Version: 6.00 Build 0)  -->
<!DOCTYPE svg PUBLIC "-//W3C//DTD SVG 1.1//EN" "http://www.w3.org/Graphics/SVG/1.1/DTD/svg11.dtd">
<svg version="1.1" id="Capa_1" xmlns="http://www.w3.org/2000/svg" xmlns:xlink="http://www.w3.org/1999/xlink" x="0px" y="0px" viewBox="0 0 395 395" style="enable-background:new 0 0 395 395;" xml:space="preserve">
	<g>
		<path d="M382.5,265.301h-92.199V129.697H382.5c6.902,0,12.5-5.597,12.5-12.5c0-6.903-5.598-12.5-12.5-12.5h-92.199V12.5
		c0-6.903-5.598-12.5-12.5-12.5c-6.903,0-12.5,5.597-12.5,12.5v92.197h-135.6V12.5c0-6.903-5.598-12.5-12.5-12.5
		c-6.903,0-12.5,5.597-12.5,12.5v92.197H12.5c-6.903,0-12.5,5.597-12.5,12.5c0,6.903,5.597,12.5,12.5,12.5h92.201v135.604H12.5
		c-6.903,0-12.5,5.597-12.5,12.5c0,6.903,5.597,12.5,12.5,12.5h92.201V382.5c0,6.903,5.597,12.5,12.5,12.5
		c6.902,0,12.5-5.597,12.5-12.5v-92.199h135.6V382.5c0,6.903,5.597,12.5,12.5,12.5c6.902,0,12.5-5.597,12.5-12.5v-92.199H382.5
		c6.902,0,12.5-5.597,12.5-12.5C395,270.897,389.402,265.301,382.5,265.301z M265.301,265.301h-135.6V129.697h135.6V265.301z" />
		<path d="M98.806,197.5c0-22.344-18.179-40.521-40.523-40.521c-22.344,0-40.521,18.178-40.521,40.521
		c0,22.344,18.178,40.521,40.521,40.521C80.627,238.021,98.806,219.844,98.806,197.5z M42.762,197.5
		c0-8.559,6.963-15.521,15.521-15.521c8.56,0,15.523,6.963,15.523,15.521s-6.963,15.521-15.523,15.521
		C49.725,213.021,42.762,206.059,42.762,197.5z" />
		<path d="M197.5,299.282c-22.342,0-40.519,18.179-40.519,40.522c0,22.343,18.177,40.52,40.519,40.52
		c22.345,0,40.523-18.177,40.523-40.52C238.023,317.461,219.845,299.282,197.5,299.282z M197.5,355.324
		c-8.557,0-15.519-6.962-15.519-15.52c0-8.56,6.962-15.522,15.519-15.522c8.56,0,15.523,6.963,15.523,15.522
		C213.023,348.362,206.06,355.324,197.5,355.324z" />
		<path d="M158.995,236.006c2.44,2.44,5.64,3.661,8.839,3.661s6.398-1.221,8.839-3.661l20.829-20.829l20.827,20.829
		c2.44,2.441,5.64,3.661,8.839,3.661c3.198,0,6.398-1.221,8.839-3.661c4.882-4.882,4.882-12.796,0-17.678l-20.829-20.829
		l20.829-20.829c4.882-4.882,4.882-12.796,0-17.678c-4.882-4.882-12.797-4.881-17.678,0l-20.827,20.829l-20.829-20.829
		c-4.88-4.88-12.795-4.881-17.678,0c-4.882,4.881-4.882,12.796,0,17.678l20.829,20.829l-20.829,20.829
		C154.113,223.21,154.113,231.124,158.995,236.006z" />
		<path d="M11.468,88.479c2.441,2.441,5.64,3.661,8.839,3.661c3.199,0,6.398-1.221,8.839-3.661L49.974,67.65l20.827,20.829
		c2.442,2.441,5.641,3.661,8.84,3.661c3.198,0,6.398-1.221,8.839-3.661c4.882-4.881,4.882-12.796,0-17.678L67.65,49.973
		l20.829-20.829c4.882-4.882,4.882-12.796,0-17.678c-4.883-4.882-12.798-4.881-17.679,0L49.974,32.295L29.146,11.466
		c-4.881-4.88-12.796-4.881-17.678,0c-4.882,4.881-4.882,12.796,0,17.678l20.829,20.829L11.468,70.802
		C6.586,75.684,6.586,83.598,11.468,88.479z" />
		<path d="M383.675,306.659c-4.882-4.881-12.797-4.881-17.678,0l-20.829,20.829l-20.827-20.829c-4.881-4.882-12.795-4.881-17.678,0
		c-4.882,4.882-4.882,12.796,0,17.678l20.829,20.829l-20.829,20.829c-4.882,4.882-4.882,12.796,0,17.678
		c2.44,2.44,5.64,3.661,8.839,3.661c3.199,0,6.398-1.221,8.839-3.661l20.827-20.829l20.829,20.829
		c2.441,2.441,5.64,3.661,8.839,3.661c3.198,0,6.398-1.221,8.839-3.661c4.882-4.882,4.882-12.796,0-17.678l-20.829-20.829
		l20.829-20.829C388.557,319.455,388.557,311.541,383.675,306.659z" />
	</g>
	<g></g>
	<g></g>
	<g></g>
	<g></g>
	<g></g>
	<g></g>
	<g></g>
	<g></g>
	<g></g>
	<g></g>
	<g></g>
	<g></g>
	<g></g>
	<g></g>
	<g></g>
</svg>
