<?xml version="1.0" encoding="utf-8"?>
<!-- Generator: Adobe Illustrator 24.1.1, SVG Export Plug-In . SVG Version: 6.00 Build 0)  -->
<svg version="1.1" id="Layer_1" xmlns="http://www.w3.org/2000/svg" xmlns:xlink="http://www.w3.org/1999/xlink" x="0px" y="0px" viewBox="0 0 512 512" style="enable-background:new 0 0 512 512;" xml:space="preserve">
	<g>
		<path d="M317.4,369.7c61.4,21.8,92.2,42.7,92.2,62.5v54.3H0V383c12.3-4.8,26.3-9.2,42-13.3c32.1-11.6,54.1-23.4,66-35.3
		s17.9-28.2,17.9-48.6c0-7.5-3.9-15.7-11.8-24.6c-7.9-8.9-13.1-21.5-15.9-37.9c-0.7-4.1-4.6-8.4-11.8-12.8s-11.4-14.8-12.8-31.2
		c0-5.5,0.9-9.9,2.6-13.3c1.7-3.4,3.2-5.5,4.6-6.1l2-2c-2.7-17.1-4.8-32.1-6.1-45.1c-2-18.4,4.8-37.5,20.5-57.3s43-29.7,81.9-29.7
		s66.2,9.9,81.9,29.7s22.9,38.9,21.5,57.3l-7.2,45.1c6.1,2.7,9.2,9.9,9.2,21.5c-0.7,9.6-2.2,16.9-4.6,22c-2.4,5.1-4.8,8-7.2,8.7
		s-4.8,2-7.2,4.1c-2.4,2-3.9,5.1-4.6,9.2c-3.4,15.7-9,28.2-16.9,37.4s-11.8,17.6-11.8,25.1c0,20.5,6.1,36.7,18.4,48.6
		C263.2,346.3,285.4,358.1,317.4,369.7 M435.2,230.4H512v51.2h-76.8v76.8H384v-76.8h-76.8v-51.2H384v-76.8h51.2V230.4" />
	</g>
</svg>
